<svg width="66" height="66" viewBox="0 0 66 66" fill="none" xmlns="http://www.w3.org/2000/svg">
<circle cx="33" cy="33" r="32" fill="#FAFAFA" stroke="#232323" stroke-width="2"/>
<path d="M24.606 20.4619C25.784 20.4619 26.844 20.5639 27.816 20.7719C28.782 20.9779 29.606 21.3179 30.302 21.7879C30.988 22.2579 31.524 22.8819 31.91 23.6659C32.284 24.4399 32.47 25.4079 32.47 26.5519C32.47 27.7919 32.19 28.8279 31.628 29.6539C31.062 30.4819 30.228 31.1599 29.116 31.6839C30.63 32.1219 31.752 32.8879 32.496 33.9759C33.244 35.0739 33.61 36.3879 33.61 37.9279C33.61 39.1779 33.372 40.2519 32.894 41.1539C32.4334 42.0425 31.7651 42.8068 30.946 43.3819C30.0975 43.9727 29.1498 44.4063 28.148 44.6619C27.0976 44.9376 26.016 45.0761 24.93 45.0739H13V20.4619H24.606ZM23.904 30.4059C24.864 30.4059 25.66 30.1779 26.288 29.7159C26.912 29.2599 27.214 28.5079 27.214 27.4779C27.214 26.9059 27.112 26.4339 26.912 26.0639C26.7171 25.708 26.4288 25.412 26.078 25.2079C25.7109 24.9902 25.3057 24.8442 24.884 24.7779C24.4244 24.6922 23.9575 24.6513 23.49 24.6559H18.42V30.4059H23.904ZM24.206 40.8839C24.74 40.8839 25.248 40.8379 25.726 40.7299C26.208 40.6259 26.636 40.4579 27 40.2079C27.364 39.9679 27.664 39.6419 27.88 39.2259C28.098 38.8139 28.204 38.2759 28.204 37.6299C28.204 36.3619 27.846 35.4599 27.138 34.9139C26.428 34.3739 25.476 34.1059 24.31 34.1059H18.42V40.8859L24.206 40.8839ZM41.336 40.8019C42.07 41.5179 43.128 41.8779 44.504 41.8779C45.49 41.8779 46.342 41.6279 47.06 41.1319C47.768 40.6339 48.2 40.1019 48.366 39.5519H52.676C51.984 41.6959 50.934 43.2279 49.498 44.1499C48.08 45.0759 46.354 45.5359 44.338 45.5359C42.934 45.5359 41.67 45.3099 40.538 44.8619C39.4515 44.4388 38.4696 43.7851 37.66 42.9459C36.8638 42.0872 36.2483 41.0772 35.85 39.9759C35.4122 38.7581 35.1955 37.4719 35.21 36.1779C35.21 34.8459 35.432 33.5999 35.868 32.4499C36.2819 31.3383 36.9174 30.3224 37.736 29.4639C38.546 28.6239 39.506 27.9619 40.624 27.4759C41.7997 26.9815 43.0647 26.735 44.34 26.7519C45.848 26.7519 47.166 27.0439 48.298 27.6319C49.3958 28.1932 50.3476 29.0026 51.078 29.9959C51.804 30.9819 52.322 32.1119 52.644 33.3779C52.966 34.6419 53.078 35.9619 52.986 37.3439H40.124C40.126 38.7519 40.6 40.0859 41.336 40.8019ZM46.96 31.4399C46.378 30.7959 45.394 30.4479 44.19 30.4479C43.408 30.4479 42.762 30.5779 42.242 30.8459C41.7665 31.0861 41.3447 31.4201 41.002 31.8279C40.701 32.1982 40.4779 32.6254 40.346 33.0839C40.2306 33.4663 40.1562 33.8598 40.124 34.2579H48.088C47.972 33.0099 47.544 32.0879 46.96 31.4399ZM39.124 22.1139H49.102V24.5439H39.124V22.1139Z" fill="#232323"/>
</svg>
