<svg width="66" height="66" viewBox="0 0 66 66" fill="none" xmlns="http://www.w3.org/2000/svg">
<circle cx="33" cy="33" r="32" fill="#FAFAFA" stroke="#232323" stroke-width="2"/>
<path d="M50.32 22.96C48.5747 19.9355 46.063 17.4244 43.038 15.68C39.972 13.894 36.626 13 33 13C29.374 13 26.028 13.894 22.96 15.68C19.894 17.466 17.466 19.894 15.68 22.96C13.894 26.026 13 29.374 13 33C13 36.626 13.892 39.974 15.68 43.04C17.4246 46.065 19.9365 48.5762 22.962 50.32C26.028 52.106 29.374 53 33 53C36.626 53 39.972 52.106 43.04 50.32C46.065 48.5756 48.5767 46.0645 50.322 43.04C52.108 39.974 53 36.626 53 33C53 29.374 52.108 26.026 50.32 22.96ZM33 16.32C37 16.32 40.544 17.6 43.64 20.158C41.8 22.506 39.068 24.438 35.44 25.958C33.436 22.332 31.264 19.304 28.918 16.878C30.2476 16.5104 31.6205 16.3227 33 16.32ZM20.02 22.6C21.4825 20.7429 23.3329 19.2275 25.442 18.16C27.866 20.562 30.092 23.56 32.122 27.16C28.122 28.36 23.894 28.96 19.44 28.96C18.294 28.96 17.428 28.934 16.84 28.88C17.453 26.5888 18.5359 24.4501 20.02 22.6ZM16.32 33C16.32 32.892 16.326 32.76 16.34 32.6C16.354 32.44 16.36 32.308 16.36 32.2C16.868 32.228 17.642 32.24 18.682 32.24C24.014 32.24 28.974 31.506 33.56 30.04C33.934 30.786 34.322 31.626 34.72 32.56C32.08 33.146 29.372 34.572 26.598 36.84C23.824 39.108 21.8 41.494 20.52 44C17.72 40.826 16.32 37.16 16.32 33ZM33 49.68C29.212 49.68 25.812 48.506 22.798 46.162C24 43.788 25.846 41.518 28.34 39.36C30.832 37.2 33.306 35.854 35.76 35.32C37.308 39.598 38.355 44.041 38.88 48.56C37.0057 49.2924 35.0123 49.6721 33 49.68ZM47.16 41.76C45.8509 43.8691 44.0882 45.6598 42 47.002C41.52 42.842 40.6 38.788 39.242 34.84C41.106 34.708 42.772 34.64 44.242 34.64C45.84 34.64 47.614 34.708 49.56 34.84C49.2989 37.2997 48.4779 39.6669 47.16 41.76ZM44.68 31.76C42.36 31.76 40.214 31.854 38.24 32.04C37.8219 30.9456 37.3683 29.865 36.88 28.8C41.012 26.988 43.944 24.788 45.678 22.2C48.078 25.028 49.386 28.254 49.598 31.88C47.974 31.8 46.334 31.76 44.68 31.76Z" fill="#232323"/>
</svg>
