<svg width="66" height="66" viewBox="0 0 66 66" fill="none" xmlns="http://www.w3.org/2000/svg">
<circle cx="33" cy="33" r="32" fill="#FAFAFA" stroke="#232323" stroke-width="2"/>
<path d="M32.998 23.7539C30.5453 23.7539 28.193 24.7282 26.4587 26.4626C24.7243 28.1969 23.75 30.5492 23.75 33.0019C23.75 35.4546 24.7243 37.8069 26.4587 39.5412C28.193 41.2756 30.5453 42.2499 32.998 42.2499C35.4507 42.2499 37.803 41.2756 39.5373 39.5412C41.2717 37.8069 42.246 35.4546 42.246 33.0019C42.246 30.5492 41.2717 28.1969 39.5373 26.4626C37.803 24.7282 35.4507 23.7539 32.998 23.7539ZM32.998 39.0079C31.4046 39.0079 29.8764 38.3749 28.7497 37.2482C27.623 36.1215 26.99 34.5933 26.99 32.9999C26.99 31.4065 27.623 29.8783 28.7497 28.7516C29.8764 27.6249 31.4046 26.9919 32.998 26.9919C34.5914 26.9919 36.1196 27.6249 37.2463 28.7516C38.373 29.8783 39.006 31.4065 39.006 32.9999C39.006 34.5933 38.373 36.1215 37.2463 37.2482C36.1196 38.3749 34.5914 39.0079 32.998 39.0079Z" fill="#232323"/>
<path d="M42.6121 25.5698C43.8028 25.5698 44.7681 24.6045 44.7681 23.4138C44.7681 22.2231 43.8028 21.2578 42.6121 21.2578C41.4213 21.2578 40.4561 22.2231 40.4561 23.4138C40.4561 24.6045 41.4213 25.5698 42.6121 25.5698Z" fill="#232323"/>
<path d="M50.0659 21.2218C49.6029 20.0261 48.8954 18.9403 47.9886 18.0339C47.0818 17.1274 45.9957 16.4203 44.7999 15.9578C43.4006 15.4325 41.9223 15.1484 40.4279 15.1178C38.5019 15.0338 37.8919 15.0098 33.0079 15.0098C28.1239 15.0098 27.4979 15.0098 25.5879 15.1178C24.0947 15.1469 22.6174 15.431 21.2199 15.9578C20.0238 16.4198 18.9374 17.1267 18.0306 18.0332C17.1237 18.9397 16.4164 20.0258 15.9539 21.2218C15.4285 22.621 15.1451 24.0994 15.1159 25.5938C15.0299 27.5178 15.0039 28.1278 15.0039 33.0138C15.0039 37.8978 15.0039 38.5198 15.1159 40.4338C15.1459 41.9298 15.4279 43.4058 15.9539 44.8078C16.4177 46.0033 17.1257 47.0889 18.0328 47.9953C18.9399 48.9017 20.026 49.6089 21.2219 50.0718C22.6168 50.6182 24.0946 50.9225 25.5919 50.9718C27.5179 51.0558 28.1279 51.0818 33.0119 51.0818C37.8959 51.0818 38.5219 51.0818 40.4319 50.9718C41.9261 50.9414 43.4044 50.658 44.8039 50.1338C45.9994 49.6701 47.0852 48.9624 47.9918 48.0557C48.8985 47.149 49.6063 46.0633 50.0699 44.8678C50.5959 43.4678 50.8779 41.9918 50.9079 40.4958C50.9939 38.5718 51.0199 37.9618 51.0199 33.0758C51.0199 28.1898 51.0199 27.5698 50.9079 25.6558C50.8846 24.1403 50.5998 22.6403 50.0659 21.2218ZM47.6299 40.2858C47.617 41.4384 47.4066 42.5802 47.0079 43.6618C46.7076 44.4395 46.2477 45.1458 45.658 45.7351C45.0683 46.3245 44.3618 46.7839 43.5839 47.0838C42.5144 47.4807 41.3846 47.691 40.2439 47.7058C38.3439 47.7938 37.8079 47.8158 32.9359 47.8158C28.0599 47.8158 27.5619 47.8158 25.6259 47.7058C24.4858 47.6918 23.3566 47.4814 22.2879 47.0838C21.5073 46.7857 20.7979 46.3272 20.2057 45.7377C19.6135 45.1482 19.1516 44.441 18.8499 43.6618C18.4568 42.5919 18.2465 41.4634 18.2279 40.3238C18.1419 38.4238 18.1219 37.8878 18.1219 33.0158C18.1219 28.1418 18.1219 27.6438 18.2279 25.7058C18.2408 24.5538 18.4512 23.4126 18.8499 22.3318C19.4599 20.7538 20.7099 19.5118 22.2879 18.9078C23.3571 18.512 24.486 18.3017 25.6259 18.2858C27.5279 18.1998 28.0619 18.1758 32.9359 18.1758C37.8099 18.1758 38.3099 18.1758 40.2439 18.2858C41.3847 18.2995 42.5146 18.5099 43.5839 18.9078C44.3618 19.2083 45.0682 19.6682 45.6578 20.2578C46.2475 20.8475 46.7074 21.5539 47.0079 22.3318C47.401 23.4017 47.6113 24.5301 47.6299 25.6698C47.7159 27.5718 47.7379 28.1058 47.7379 32.9798C47.7379 37.8518 47.7379 38.3758 47.6519 40.2878H47.6299V40.2858Z" fill="#232323"/>
</svg>
