<svg width="43" height="75" viewBox="0 0 43 75" fill="none" xmlns="http://www.w3.org/2000/svg">
<path d="M21.58 17.24L8.44 57.56V57.5C8.2 58.1 7.86 58.6 7.42 59C7.02 59.36 6.52 59.54 5.92 59.54C5.6 59.54 5.28 59.5 4.96 59.42C4.68 59.38 4.38 59.32 4.06 59.24H4.12C1.84 58.52 1 57.24 1.6 55.4L15.28 13.82C15.48 13.18 15.82 12.64 16.3 12.2C16.82 11.76 17.42 11.5 18.1 11.42C18.78 11.3 19.44 11.22 20.08 11.18C20.72 11.1 21.22 11.06 21.58 11.06C21.94 11.06 22.44 11.1 23.08 11.18C23.72 11.22 24.38 11.28 25.06 11.36C25.62 11.44 26.16 11.74 26.68 12.26C27.24 12.78 27.66 13.3 27.94 13.82C30.18 20.7 32.44 27.64 34.72 34.64C37.04 41.6 39.32 48.52 41.56 55.4C42.12 57.24 41.28 58.52 39.04 59.24C38.72 59.32 38.42 59.38 38.14 59.42C37.9 59.5 37.62 59.54 37.3 59.54C36.74 59.54 36.22 59.36 35.74 59C35.3 58.6 34.98 58.1 34.78 57.5V57.56L21.58 17.24ZM26.08 44.6C26.08 45.88 25.62 46.98 24.7 47.9C23.82 48.78 22.74 49.22 21.46 49.22C20.18 49.22 19.1 48.78 18.22 47.9C17.34 46.98 16.9 45.88 16.9 44.6C16.9 43.32 17.34 42.24 18.22 41.36C19.1 40.44 20.18 39.98 21.46 39.98C22.74 39.98 23.82 40.44 24.7 41.36C25.62 42.24 26.08 43.32 26.08 44.6Z" fill="#232323"/>
<circle cx="21.5" cy="45" r="5" fill="#9859FF"/>
</svg>
